<?xml version="1.0" standalone="no"?>
<!DOCTYPE svg PUBLIC "-//W3C//DTD SVG 20010904//EN"
 "http://www.w3.org/TR/2001/REC-SVG-20010904/DTD/svg10.dtd">
<svg version="1.0" xmlns="http://www.w3.org/2000/svg"
 width="1663.000000pt" height="1663.000000pt" viewBox="0 0 1663.000000 1663.000000"
 preserveAspectRatio="xMidYMid meet">
<metadata>
Created by potrace 1.11, written by Peter Selinger 2001-2013
</metadata>
<g transform="translate(0.000000,1663.000000) scale(0.100000,-0.100000)"
fill="#000000" stroke="none">
<path d="M6346 13643 c-4 -4 -121 -8 -259 -8 -139 -1 -258 -5 -265 -9 -7 -4
-12 -2 -12 5 0 8 -4 8 -15 -1 -12 -10 -15 -10 -15 0 0 9 -3 10 -13 1 -8 -6
-17 -8 -21 -4 -9 9 -46 11 -40 2 2 -4 -8 -6 -23 -5 -16 2 -36 -1 -47 -6 -12
-7 -16 -7 -12 0 3 5 -1 13 -10 16 -8 3 -13 2 -10 -3 3 -4 -67 -9 -157 -10
-357 -5 -395 -6 -392 -12 2 -3 -2 -6 -10 -6 -8 0 -15 5 -15 11 0 6 -5 4 -10
-4 -8 -12 -10 -12 -10 -1 0 11 -3 11 -16 0 -13 -10 -17 -10 -24 0 -6 11 -9 11
-13 0 -5 -12 -6 -12 -6 0 -1 10 -4 11 -15 2 -9 -8 -21 -8 -39 -2 -15 6 -29 7
-31 2 -3 -4 -66 -7 -141 -7 -74 1 -135 -1 -135 -4 0 -3 -18 -5 -40 -3 -29 1
-39 -1 -33 -10 5 -8 2 -8 -9 1 -17 14 -39 13 -50 -3 -5 -6 -8 -6 -8 2 0 12
-24 12 -36 0 -4 -4 -13 -2 -21 4 -7 6 -13 7 -13 2 0 -5 -9 -9 -20 -9 -11 0
-20 4 -20 9 0 6 -5 6 -12 0 -7 -5 -24 -8 -38 -6 -34 5 -34 5 -125 -2 -44 -3
-155 -7 -247 -9 -92 -2 -171 -6 -175 -8 -4 -2 -32 -3 -60 -3 -32 1 -53 -3 -53
-9 0 -6 -5 -4 -10 4 -5 8 -10 11 -10 5 0 -6 -47 -10 -121 -10 -66 0 -122 -3
-125 -6 -2 -4 -18 -4 -34 1 -17 5 -28 5 -26 1 3 -4 -46 -8 -107 -9 -162 -4
-211 -7 -225 -16 -7 -4 -12 -2 -12 5 0 7 -5 8 -12 3 -7 -5 -61 -9 -120 -9 -60
0 -108 -2 -108 -5 0 -3 -12 -5 -27 -4 -16 1 -36 -3 -45 -8 -10 -5 -18 -5 -18
0 0 9 -58 8 -67 -1 -3 -3 -16 -2 -29 3 -13 5 -25 6 -28 1 -3 -4 -21 -7 -40 -6
-20 1 -36 -2 -36 -8 0 -5 -6 -5 -13 2 -8 6 -17 8 -20 5 -3 -4 -51 -8 -106 -9
-54 -2 -104 -6 -110 -9 -6 -4 -11 -1 -11 6 0 8 -3 9 -8 3 -4 -6 -20 -12 -37
-12 -178 -8 -213 -11 -223 -17 -6 -3 -13 -2 -17 4 -4 6 -12 7 -18 3 -7 -4 -40
-8 -73 -9 -34 -1 -66 -4 -72 -8 -6 -3 -13 0 -15 6 -4 10 -6 10 -6 0 -1 -10 -6
-10 -22 -1 -12 6 -19 7 -15 1 3 -5 -1 -12 -9 -16 -8 -3 -15 -1 -15 5 0 6 -5 7
-11 3 -6 -3 -54 -8 -107 -10 -151 -7 -162 -8 -162 -18 0 -5 -5 -5 -13 0 -13
10 -42 10 -95 0 -25 -5 -32 -3 -27 6 4 7 1 6 -7 -2 -9 -11 -32 -15 -83 -14
-38 0 -74 -2 -80 -5 -5 -3 -30 -6 -55 -7 -120 -5 -157 -8 -178 -16 -15 -5 -21
-4 -17 2 3 6 2 10 -4 10 -5 0 -12 -4 -15 -8 -3 -5 -30 -8 -60 -7 -31 0 -56 -2
-56 -5 0 -3 -21 -6 -48 -7 -26 -1 -73 -3 -104 -5 -32 -1 -58 -6 -58 -10 0 -5
-8 -4 -19 1 -10 6 -21 8 -25 4 -3 -3 -23 -7 -44 -8 -21 -1 -44 -5 -50 -9 -7
-4 -12 -2 -12 5 0 8 -4 8 -12 1 -7 -5 -39 -9 -71 -8 -31 0 -57 -2 -57 -5 0 -3
-15 -6 -32 -6 -18 0 -42 -4 -52 -8 -15 -6 -17 -5 -11 5 6 10 4 11 -6 4 -16
-10 -20 -11 -51 -13 l-22 -1 22 -16 c12 -8 27 -12 32 -9 6 3 10 1 10 -4 0 -6
5 -11 11 -11 6 0 17 -7 26 -15 8 -8 19 -13 24 -10 5 4 9 1 9 -5 0 -6 4 -9 9
-5 6 3 14 -3 20 -12 5 -10 11 -17 13 -15 6 7 58 -18 58 -28 0 -5 7 -10 15 -10
8 0 15 -4 15 -10 0 -5 6 -10 13 -10 7 0 18 -9 25 -20 7 -12 16 -19 21 -16 4 3
14 -6 21 -19 7 -13 17 -22 22 -19 4 3 8 0 8 -7 0 -7 2 -10 5 -7 3 3 37 -26 76
-64 39 -37 74 -68 79 -68 5 0 11 -9 15 -19 3 -11 15 -23 26 -26 10 -4 19 -10
19 -14 0 -5 19 -28 42 -52 73 -76 133 -152 130 -163 -2 -6 0 -8 3 -4 7 7 49
-37 43 -45 -2 -1 8 -15 22 -29 38 -41 51 -58 45 -58 -4 0 0 -7 7 -15 31 -34
36 -43 31 -49 -4 -3 -2 -6 4 -6 15 0 105 -179 96 -192 -3 -7 -1 -8 5 -4 8 5
12 -2 12 -18 0 -14 5 -26 10 -26 6 0 10 -6 10 -12 0 -7 7 -26 15 -41 9 -18 10
-25 2 -20 -8 4 -7 1 1 -10 8 -9 10 -22 6 -28 -4 -7 -3 -9 3 -6 9 6 22 -28 28
-73 1 -9 7 -26 14 -38 6 -12 9 -22 5 -22 -3 0 -2 -6 3 -12 6 -7 10 -27 9 -45
0 -17 2 -29 6 -26 5 2 9 -5 9 -16 1 -12 2 -27 3 -33 1 -7 4 -16 9 -19 4 -3 9
-25 11 -50 2 -24 5 -44 6 -44 1 0 4 -13 6 -30 3 -16 11 -33 17 -37 9 -6 9 -8
0 -8 -6 0 -10 -8 -8 -17 2 -10 4 -18 5 -18 3 0 13 -114 14 -162 1 -28 4 -49 9
-46 4 2 7 -3 7 -12 0 -10 -5 -13 -12 -9 -10 6 -10 5 -1 -7 14 -17 20 -80 9
-97 -4 -6 -4 -12 1 -12 6 0 9 -210 2 -230 -1 -3 0 -16 1 -29 1 -17 -2 -21 -12
-15 -10 6 -11 4 -2 -7 9 -12 11 -33 5 -41 -1 -2 -4 -32 -5 -68 -2 -36 -5 -69
-6 -75 -1 -5 -2 -19 -1 -30 1 -15 3 -17 10 -7 11 17 21 17 32 0 6 -8 9 -9 9
-1 0 12 17 12 37 0 6 -4 15 -3 18 3 5 7 11 8 19 1 7 -6 17 -6 26 -1 9 6 20 4
29 -3 9 -7 12 -7 8 -1 -4 7 5 11 23 11 16 0 27 -5 23 -10 -3 -5 5 -4 17 3 12
7 25 8 29 4 3 -5 42 -11 86 -12 113 -5 133 -7 139 -13 3 -3 26 -4 51 -3 25 2
44 0 41 -4 -2 -4 21 -7 51 -7 30 0 57 -3 59 -6 2 -4 15 -4 29 -1 14 2 31 0 38
-5 6 -5 29 -8 50 -8 20 1 37 -1 37 -5 0 -5 39 -10 108 -13 6 0 12 -3 12 -7 0
-4 10 -7 23 -7 12 1 45 -4 72 -11 28 -7 61 -14 75 -16 14 -3 25 -5 25 -6 0 -3
41 -11 58 -11 9 0 17 -5 17 -10 0 -6 6 -9 13 -6 6 2 27 -2 46 -9 18 -8 37 -11
42 -8 5 3 9 0 9 -7 0 -7 3 -9 7 -6 3 4 13 1 21 -6 13 -10 14 -9 7 3 -6 11 -4
11 11 -2 10 -9 21 -17 24 -16 15 0 67 -16 77 -24 7 -5 17 -7 23 -3 5 3 10 1
10 -4 0 -6 3 -10 8 -9 4 1 17 -3 28 -10 12 -6 24 -9 26 -6 3 2 11 -2 17 -10 7
-8 19 -12 27 -9 8 3 14 -1 14 -8 0 -7 3 -9 7 -6 3 4 14 0 24 -9 9 -8 23 -17
31 -19 35 -8 58 -18 58 -24 0 -4 16 -13 35 -21 19 -8 35 -18 35 -22 0 -5 5 -6
10 -3 5 3 10 1 10 -4 0 -6 7 -11 15 -11 8 0 15 -4 15 -10 0 -5 3 -9 8 -8 6 2
49 -23 77 -45 6 -4 48 -32 95 -63 47 -30 87 -59 88 -64 2 -6 10 -10 17 -10 7
0 15 -7 19 -15 3 -8 12 -15 20 -15 7 0 17 -7 20 -16 3 -8 11 -12 17 -8 8 4 9
3 5 -5 -4 -6 0 -14 11 -18 10 -4 28 -17 40 -30 12 -13 26 -23 30 -23 5 0 15
-9 23 -20 8 -11 17 -20 21 -20 10 0 149 -142 149 -151 0 -5 7 -9 17 -9 9 0 14
-3 10 -6 -8 -8 18 -34 33 -34 6 0 9 -4 6 -8 -3 -5 13 -27 35 -50 21 -23 39
-47 39 -52 0 -6 5 -10 10 -10 6 0 10 -4 10 -9 0 -6 14 -25 30 -43 17 -18 30
-36 30 -40 0 -8 21 -36 48 -64 7 -8 11 -14 7 -14 -4 0 1 -7 9 -16 9 -8 16 -22
16 -30 0 -8 5 -14 10 -14 6 0 10 -7 10 -15 0 -8 5 -15 10 -15 6 0 10 -7 10
-16 0 -8 4 -13 8 -10 5 3 9 -1 10 -9 1 -8 3 -22 4 -30 1 -8 8 -15 15 -15 8 0
12 -4 9 -9 -3 -5 1 -14 9 -21 8 -7 12 -16 9 -22 -3 -5 10 -8 30 -6 20 1 36 5
36 9 0 3 10 6 23 5 12 -1 31 4 43 11 11 7 24 10 27 6 4 -3 7 -1 7 5 0 6 11 9
25 6 14 -2 25 0 25 5 0 5 12 11 28 14 54 11 127 31 132 36 3 4 12 8 20 10 8 2
31 8 50 13 19 5 46 11 59 14 13 3 32 9 43 15 10 5 23 7 28 4 6 -3 10 -1 10 5
0 6 4 9 9 5 5 -3 12 -1 16 4 3 6 12 8 20 4 8 -3 15 -1 15 4 0 5 9 10 20 11 43
4 50 6 50 13 0 4 9 6 20 4 11 -2 20 1 20 7 0 6 3 9 6 5 4 -3 21 0 38 7 17 7
37 11 44 9 6 -3 12 0 12 7 0 6 6 10 13 9 26 -3 48 1 43 9 -3 5 5 8 17 7 12 -1
28 2 35 8 6 5 12 6 12 2 0 -4 12 0 26 10 18 11 24 12 18 4 -6 -12 -5 -12 8 -1
9 7 22 11 29 10 8 -2 13 2 12 7 -1 6 11 11 25 11 15 1 34 4 42 6 8 3 29 8 45
13 17 4 36 13 44 19 12 9 13 8 6 -4 -8 -13 -6 -13 8 -1 9 7 23 11 31 8 8 -3
17 1 20 9 3 9 10 13 14 10 5 -3 27 2 51 10 23 8 53 15 66 16 13 1 21 6 18 12
-3 5 5 7 21 4 14 -3 26 -1 26 4 0 6 6 8 14 5 8 -3 16 -2 18 3 2 5 14 11 28 14
14 2 25 5 25 6 0 1 8 3 18 6 9 2 23 6 30 7 6 2 26 7 42 11 17 4 37 10 45 14 8
3 20 6 25 7 10 1 79 22 105 32 8 4 21 5 28 4 6 -1 12 3 12 9 0 6 4 8 10 5 5
-3 18 -1 29 4 10 6 32 12 49 13 17 1 28 6 26 10 -3 4 6 8 20 8 14 0 26 4 26 8
0 5 15 7 33 5 26 -4 29 -2 17 7 -12 9 -10 11 13 7 15 -2 30 0 33 4 3 5 16 9
29 9 13 0 26 4 29 9 3 5 18 11 33 14 62 11 87 18 107 29 12 7 30 12 41 13 11
0 25 3 31 7 6 4 21 9 35 12 56 12 69 15 86 24 10 5 24 7 31 5 6 -3 12 -1 12 4
0 5 8 10 18 11 48 6 57 7 62 13 3 3 23 11 45 16 22 6 65 19 95 28 30 9 66 18
79 20 13 2 27 7 30 12 3 4 11 8 16 8 32 1 95 18 95 25 0 5 9 7 20 5 11 -2 20
0 20 5 0 5 6 7 14 4 8 -3 17 0 21 5 3 6 11 9 16 6 5 -4 9 -1 9 5 0 6 4 9 9 5
6 -3 31 3 58 13 26 9 57 17 68 17 11 0 23 4 26 8 3 4 16 9 27 10 12 1 22 4 22
8 0 4 11 6 25 4 14 -1 25 2 25 6 0 5 11 9 25 9 14 0 25 4 25 9 0 6 9 8 20 6
11 -2 26 2 34 10 7 8 23 11 35 8 13 -3 21 -1 21 6 0 7 5 9 10 6 6 -3 10 -2 10
4 0 6 7 8 15 5 8 -4 21 -1 29 5 7 6 21 9 30 5 9 -3 16 -2 16 4 0 14 40 23 40
9 0 -7 6 -4 13 5 8 10 24 15 39 14 16 -2 25 1 22 8 -2 6 6 12 18 13 27 2 72
10 76 13 1 2 5 3 10 4 4 1 13 5 20 9 22 14 31 -2 26 -47 -3 -23 -6 -66 -7 -94
-1 -29 -5 -52 -8 -52 -3 0 -6 -27 -5 -60 1 -33 -3 -60 -7 -60 -5 0 -6 -4 -2
-9 3 -5 2 -12 -2 -14 -5 -3 -7 -33 -7 -66 1 -40 -2 -61 -10 -61 -6 0 -4 -5 4
-10 8 -5 10 -10 4 -10 -6 0 -10 -20 -9 -50 1 -27 -3 -50 -8 -50 -5 0 -4 -7 3
-15 8 -10 9 -15 1 -15 -6 0 -11 -10 -10 -22 0 -49 -8 -124 -15 -136 -4 -7 -2
-12 6 -12 8 0 9 -3 3 -8 -12 -9 -13 -14 -16 -88 -1 -32 -7 -65 -13 -73 -9 -12
-8 -13 3 -6 11 6 12 5 5 -6 -5 -8 -9 -32 -11 -54 -1 -41 -11 -140 -13 -140 -1
0 -3 -25 -6 -55 -6 -72 -11 -124 -14 -127 -6 -8 -3 -50 5 -62 5 -10 4 -12 -3
-7 -9 5 -12 -10 -12 -53 0 -41 -4 -61 -12 -61 -6 0 -3 -7 8 -15 13 -11 14 -13
3 -9 -14 4 -16 -2 -14 -43 1 -26 -1 -55 -6 -64 -5 -10 -3 -21 4 -29 9 -10 9
-11 -2 -5 -10 6 -12 2 -6 -14 3 -11 2 -21 -2 -21 -5 0 -8 -27 -7 -60 1 -33 -1
-58 -4 -56 -4 2 -7 -15 -7 -37 0 -23 -4 -47 -8 -54 -4 -6 -3 -14 3 -18 6 -3 7
-12 3 -18 -8 -12 -11 -38 -16 -123 -2 -27 -7 -55 -11 -62 -4 -7 -2 -12 6 -12
9 0 9 -3 2 -8 -6 -4 -12 -29 -13 -57 -1 -27 -5 -63 -8 -80 -2 -16 -6 -55 -8
-85 -2 -30 -4 -55 -5 -55 -1 0 -3 -15 -6 -34 -2 -19 -6 -36 -8 -38 -4 -5 -40
-13 -88 -20 -21 -3 -38 -8 -38 -12 0 -3 -12 -7 -28 -8 -25 -3 -61 -9 -72 -13
-3 -1 -9 -2 -14 -1 -4 1 -14 -4 -22 -10 -8 -6 -14 -9 -14 -7 0 3 -26 -1 -57
-9 -64 -16 -89 -21 -116 -22 -10 -1 -16 -4 -14 -8 3 -5 -11 -9 -30 -10 -19 -1
-40 -7 -48 -13 -8 -7 -15 -7 -19 -1 -4 6 -17 4 -34 -4 -15 -8 -47 -17 -72 -20
-25 -4 -49 -10 -55 -14 -5 -5 -20 -7 -32 -6 -13 1 -23 -2 -23 -7 0 -4 -3 -7
-7 -6 -5 1 -26 -2 -48 -7 -22 -5 -47 -9 -55 -10 -8 -1 -23 -5 -33 -10 -10 -4
-31 -8 -46 -9 -16 0 -27 -4 -25 -8 3 -5 -7 -8 -23 -9 -15 0 -37 -3 -48 -5 -11
-3 -30 -7 -42 -9 -12 -2 -28 -7 -35 -11 -13 -8 -46 -15 -90 -17 -14 -1 -24 -5
-21 -9 2 -5 -9 -8 -25 -8 -16 0 -32 -3 -36 -7 -4 -4 -17 -8 -30 -9 -13 0 -32
-4 -42 -9 -10 -4 -30 -9 -44 -11 -14 -1 -36 -6 -50 -9 -14 -4 -31 -7 -37 -7
-7 -1 -13 -5 -13 -9 0 -5 -7 -6 -15 -3 -8 4 -23 0 -32 -7 -14 -12 -16 -12 -8
1 7 12 6 13 -7 3 -8 -7 -27 -14 -42 -15 -14 -1 -26 -5 -26 -9 0 -3 -6 -6 -12
-7 -28 -2 -47 -8 -60 -20 -8 -6 -18 -9 -21 -5 -4 3 -7 1 -7 -6 0 -7 -4 -9 -10
-6 -5 3 -10 1 -10 -5 0 -6 -4 -9 -9 -6 -5 3 -14 -1 -21 -9 -6 -7 -17 -12 -24
-9 -8 3 -16 -2 -20 -11 -3 -9 -10 -13 -16 -10 -6 3 -13 -1 -16 -9 -3 -9 -12
-16 -19 -16 -8 0 -20 -6 -27 -12 -35 -34 -86 -66 -93 -60 -5 4 -6 3 -3 -3 3
-5 -12 -27 -34 -47 -21 -21 -38 -36 -38 -34 0 3 -36 -31 -80 -75 -44 -43 -80
-76 -80 -72 0 4 -11 -8 -25 -27 -14 -19 -25 -31 -25 -28 0 4 -24 -17 -54 -45
-156 -150 -181 -172 -188 -169 -4 1 -8 -3 -8 -9 0 -5 -21 -29 -47 -52 -26 -23
-74 -68 -106 -99 -33 -32 -64 -58 -69 -58 -5 0 -7 -3 -5 -7 3 -5 -1 -14 -9
-21 -8 -7 -14 -11 -14 -8 0 2 -28 -22 -62 -55 -35 -32 -67 -59 -71 -59 -5 0
-5 -4 -2 -10 3 -5 0 -10 -8 -10 -8 0 -18 -7 -21 -16 -3 -8 -11 -12 -17 -8 -7
4 -9 3 -6 -3 7 -11 -45 -63 -64 -63 -7 0 -10 -3 -6 -6 7 -8 -17 -34 -32 -34
-5 0 -13 -9 -16 -20 -3 -11 -11 -20 -17 -20 -5 0 -35 -25 -65 -55 -30 -30 -59
-55 -65 -55 -5 0 -7 -4 -4 -8 3 -5 -4 -15 -16 -23 -24 -17 -130 -115 -234
-216 -40 -40 -78 -73 -84 -73 -5 0 -10 -7 -10 -15 0 -8 -5 -15 -10 -15 -6 0
-43 -31 -82 -70 -40 -38 -76 -70 -81 -70 -4 0 -5 -4 -2 -10 3 -6 2 -10 -3 -10
-6 0 -42 -31 -81 -69 -39 -38 -71 -67 -71 -65 0 2 -14 -11 -31 -29 -17 -17
-35 -31 -40 -29 -5 1 -9 -5 -9 -13 0 -9 -7 -18 -15 -21 -8 -4 -12 -10 -9 -15
3 -5 -4 -9 -16 -9 -12 0 -18 -4 -15 -10 3 -5 2 -10 -3 -10 -4 0 -32 -22 -60
-50 -29 -27 -56 -50 -60 -50 -5 0 -14 -11 -21 -24 -7 -13 -24 -30 -37 -37 -13
-7 -22 -14 -19 -17 5 -5 -20 -32 -30 -32 -4 0 -26 -20 -51 -45 -24 -25 -48
-45 -54 -45 -6 0 -8 -4 -5 -10 3 -5 -1 -10 -10 -10 -9 0 -13 -4 -10 -10 3 -5
2 -10 -4 -10 -6 0 -49 -38 -96 -84 -47 -47 -85 -83 -85 -80 0 2 -22 -17 -49
-44 -27 -26 -99 -94 -161 -152 -61 -58 -122 -115 -135 -127 -13 -13 -29 -23
-35 -23 -5 0 -9 -4 -8 -8 4 -11 -74 -88 -84 -84 -5 1 -8 -5 -8 -15 0 -9 -3
-14 -6 -10 -3 3 -48 -36 -100 -87 -52 -50 -94 -89 -94 -86 0 3 -5 -3 -11 -12
-5 -10 -17 -18 -24 -18 -8 0 -14 -3 -13 -8 4 -9 -61 -72 -74 -72 -5 0 -6 -4
-3 -10 3 -5 1 -10 -5 -10 -7 0 -45 -33 -85 -74 -41 -40 -76 -71 -80 -68 -3 3
-5 -2 -5 -12 0 -9 -3 -15 -7 -13 -10 6 -34 -19 -26 -27 4 -3 0 -6 -7 -6 -23 0
-114 -106 -122 -141 -2 -8 -7 -17 -12 -21 -5 -3 -11 -12 -12 -20 -2 -7 -5 -20
-6 -28 -2 -8 -6 -19 -9 -25 -4 -5 -5 -18 -4 -27 2 -10 0 -18 -4 -18 -3 0 -5
-37 -4 -82 4 -126 6 -138 16 -138 6 0 8 -3 4 -6 -3 -4 0 -19 9 -35 8 -16 15
-32 16 -36 5 -29 12 -43 20 -43 5 0 6 -4 3 -10 -3 -5 -1 -10 4 -10 6 0 11 -5
11 -10 0 -14 115 -130 129 -130 6 0 11 -4 11 -9 0 -5 13 -14 29 -21 16 -6 32
-18 35 -27 3 -8 11 -11 17 -7 6 3 14 3 18 -2 3 -5 29 -17 56 -27 71 -24 320
-25 373 0 21 9 40 22 44 27 4 6 8 7 8 3 0 -13 69 42 134 106 32 32 69 65 82
74 13 8 21 19 18 24 -3 5 1 9 8 9 8 0 21 8 29 18 48 52 174 167 182 164 4 -1
5 2 2 8 -4 7 2 14 14 17 12 3 21 9 21 13 0 4 9 17 20 30 11 13 20 20 20 16 0
-3 31 25 70 63 38 39 70 69 70 68 0 -2 32 28 71 65 39 38 76 68 82 68 6 0 8 3
4 6 -3 3 15 24 41 46 26 23 50 48 54 57 4 9 7 12 7 8 1 -5 19 10 41 33 22 23
40 38 40 34 0 -4 14 10 30 31 17 21 30 34 30 30 0 -4 25 18 55 49 30 31 58 56
61 56 9 0 44 41 44 52 0 5 3 7 8 5 4 -3 13 1 20 9 7 8 9 14 5 15 -4 0 2 4 15
10 13 5 20 13 17 19 -5 9 6 14 26 12 3 -1 12 10 19 23 7 14 16 25 20 25 4 0
51 42 104 94 54 52 100 96 104 98 4 2 6 6 5 10 -2 4 6 10 17 13 11 4 18 11 15
16 -4 5 -1 9 5 9 6 0 25 13 43 30 18 16 35 30 40 30 4 0 7 6 7 14 0 8 9 18 20
21 11 4 18 10 16 14 -3 4 8 15 25 25 16 9 27 22 24 27 -6 8 8 13 28 10 5 -1 7
2 4 6 -2 5 18 29 44 54 27 26 49 45 49 42 0 -2 28 25 62 59 34 35 66 62 70 60
4 -1 8 4 8 12 0 8 9 17 20 21 11 3 19 9 17 13 -1 4 1 8 6 10 13 4 47 42 47 53
0 5 4 8 8 5 4 -2 30 17 56 44 27 27 54 47 59 43 6 -3 7 -2 4 4 -5 8 107 125
130 135 3 2 55 51 114 109 60 58 109 104 109 102 0 -1 29 26 66 62 36 36 67
65 69 65 2 0 22 19 45 42 22 23 48 43 58 45 9 2 28 5 42 8 14 2 49 11 79 19
30 8 58 13 62 10 4 -2 10 0 14 6 4 6 11 8 16 5 5 -4 9 -2 9 2 0 5 10 9 23 10
12 1 36 4 52 8 17 4 37 8 45 10 8 2 15 4 15 5 0 1 9 3 20 5 11 2 34 6 50 10
17 4 37 8 45 10 8 2 15 4 15 5 0 3 96 23 118 24 9 0 17 4 17 9 0 5 7 7 15 4 8
-4 16 -3 19 1 2 4 19 9 37 10 18 2 37 8 41 15 6 9 8 8 8 -3 0 -12 2 -12 9 -2
4 8 11 13 15 13 27 -4 56 1 52 7 -3 5 7 8 22 7 15 -1 32 1 37 4 6 3 21 7 35 9
13 2 27 6 30 10 3 4 16 7 30 6 14 0 30 3 35 7 9 6 33 11 114 24 18 3 42 10 52
16 10 5 19 7 19 3 0 -3 6 -2 13 3 6 5 24 9 40 8 15 0 27 3 27 7 0 4 10 8 23 8
13 0 29 6 36 13 11 10 12 9 6 -2 -6 -10 -4 -12 6 -5 8 5 25 10 38 12 14 2 32
7 40 11 9 4 28 7 43 6 15 -1 27 1 26 4 -2 18 4 21 21 11 13 -6 21 -6 23 0 2 5
17 12 33 15 17 2 50 9 75 15 25 6 56 12 70 13 14 1 27 5 30 9 4 4 22 9 42 10
20 2 34 7 31 11 -3 5 9 6 26 4 17 -3 29 -1 25 4 -3 5 11 9 30 9 20 0 36 4 36
8 0 4 10 9 23 9 20 1 44 6 87 15 8 2 21 8 29 12 11 7 12 6 6 -5 -7 -11 -6 -12
6 -2 8 6 26 13 39 15 14 2 30 6 35 9 6 4 18 5 28 4 9 -2 17 0 17 4 0 4 14 8
31 9 18 1 37 6 42 9 6 4 20 8 32 10 20 3 31 5 75 16 14 4 36 9 50 11 14 3 39
9 55 14 17 5 38 8 48 6 9 -1 15 1 12 5 -2 5 9 8 26 9 17 0 36 5 42 10 7 5 22
8 35 6 12 -2 22 0 22 4 0 4 8 8 18 9 19 2 54 9 92 18 14 4 36 9 50 12 14 2 32
7 40 10 8 3 24 7 35 9 29 5 60 12 63 14 1 2 10 3 20 4 9 1 22 4 28 8 6 4 21 6
33 3 12 -2 19 0 16 6 -4 5 4 9 17 10 13 0 30 2 38 4 8 2 26 6 40 9 36 8 73 17
85 20 6 1 26 6 45 10 19 5 40 11 45 15 6 3 12 6 15 7 3 0 17 4 31 8 14 4 34 9
45 11 10 2 20 4 22 5 1 2 11 4 22 5 11 1 21 3 23 5 4 3 75 20 107 24 14 3 37
9 51 14 15 6 30 8 33 5 3 -3 12 0 21 7 8 7 15 10 15 7 0 -3 20 0 45 7 25 8 45
12 45 10 0 -3 9 0 20 6 16 9 20 8 20 -5 0 -9 4 -14 8 -11 4 2 17 -9 27 -25 11
-16 28 -32 37 -35 10 -3 17 -9 15 -13 -1 -4 17 -27 41 -51 23 -23 42 -46 42
-51 0 -5 7 -9 15 -9 8 0 15 -4 15 -9 0 -8 32 -43 195 -214 41 -42 75 -79 75
-82 2 -8 72 -75 79 -75 4 0 17 -9 28 -20 12 -11 28 -21 35 -22 7 -2 19 -9 26
-16 8 -7 17 -10 22 -7 5 3 10 1 12 -4 4 -12 55 -21 143 -27 39 -2 75 -6 82 -8
6 -3 14 0 17 7 3 9 8 8 15 -3 7 -10 11 -11 11 -3 0 7 7 10 16 6 8 -3 50 -6 92
-6 43 0 80 -5 84 -11 5 -7 8 -3 8 9 0 12 3 16 8 9 11 -16 41 -24 47 -14 4 7
13 6 26 0 13 -8 19 -7 19 0 0 8 6 8 20 0 14 -8 20 -8 20 0 0 6 5 8 11 4 7 -4
57 -6 113 -5 55 0 108 1 116 1 8 0 88 -2 177 -4 118 -2 161 0 156 8 -4 6 3 2
15 -8 12 -11 22 -14 22 -8 0 7 10 8 30 2 21 -6 30 -5 30 3 0 7 4 6 10 -3 7
-11 10 -11 10 -2 0 7 5 10 12 6 6 -4 99 -8 207 -10 108 -1 201 -3 206 -4 6 -1
12 -2 15 -1 18 6 100 5 100 -1 0 -4 11 -3 24 2 15 5 27 5 35 -3 8 -8 11 -8 11
0 0 8 9 9 30 3 21 -6 30 -5 30 3 0 7 4 6 10 -3 5 -8 10 -10 10 -5 0 6 12 11
28 11 15 1 36 4 47 7 11 3 26 6 33 6 7 1 10 6 6 12 -4 7 -1 10 7 7 8 -3 26 4
42 14 15 11 27 17 27 13 0 -3 15 10 34 29 19 19 37 31 40 28 3 -3 6 0 6 6 0 6
13 25 30 43 30 33 66 98 62 112 -1 4 2 7 8 7 6 0 9 3 9 8 -1 4 0 9 1 12 12 32
20 180 9 180 -4 0 -7 10 -7 23 0 35 -12 82 -23 85 -5 2 -9 9 -9 16 0 7 -11 25
-25 40 -13 14 -21 26 -18 26 3 0 -7 11 -23 25 -46 40 -53 45 -64 45 -5 0 -10
4 -10 9 0 8 -37 24 -52 22 -5 -1 -8 4 -8 10 0 5 -4 8 -9 4 -5 -3 -15 1 -23 8
-7 8 -18 12 -25 10 -14 -5 -42 46 -36 65 3 6 1 12 -4 12 -6 0 -10 6 -11 13 -1
16 -7 38 -16 59 -4 9 -5 22 -1 28 3 5 2 10 -3 10 -5 0 -12 12 -15 28 -3 15
-13 54 -22 87 -21 74 -22 78 -24 88 0 4 -7 23 -15 42 -17 39 -16 36 -16 66 0
11 -4 18 -9 15 -5 -4 -8 2 -6 11 1 10 -1 23 -5 28 -5 6 -9 13 -9 18 -1 4 -1 8
-2 10 0 1 -2 11 -4 22 -8 43 -11 53 -23 68 -10 11 -10 16 -1 19 8 3 8 8 -2 18
-8 8 -16 26 -17 40 -2 14 -8 26 -12 28 -5 2 -6 10 -4 17 3 8 -1 28 -9 45 -11
21 -12 30 -4 30 9 0 9 2 1 8 -6 4 -15 21 -19 37 -4 17 -10 37 -12 45 -2 8 -5
21 -5 28 -1 6 -5 12 -10 12 -5 0 -6 5 -3 10 4 6 1 17 -5 25 -7 8 -10 21 -7 29
3 7 1 18 -3 22 -5 5 -11 19 -13 31 -2 13 -6 26 -10 29 -4 4 -7 18 -7 31 0 12
-4 23 -10 23 -5 0 -10 15 -10 33 0 19 -3 37 -7 41 -5 4 -8 11 -9 14 0 6 -22
79 -29 102 -1 3 -5 24 -10 47 -4 24 -11 40 -15 38 -5 -3 -7 6 -5 20 1 14 -2
25 -8 25 -5 0 -7 9 -4 19 3 11 -1 22 -8 25 -7 2 -11 16 -10 30 2 14 -1 26 -6
26 -6 0 -8 4 -5 8 3 5 -1 21 -9 36 -8 14 -10 24 -4 20 7 -4 7 0 0 12 -10 21
-23 53 -26 69 -1 6 -3 12 -4 15 -1 3 -4 16 -7 29 -2 14 -10 31 -17 40 -10 12
-9 13 3 6 13 -8 13 -7 0 10 -8 10 -14 19 -12 19 4 1 -7 37 -19 60 -8 14 -8 16
3 10 11 -6 11 -5 0 9 -8 9 -11 21 -7 27 3 5 2 10 -3 10 -5 0 -9 6 -10 13 -5
37 -9 53 -14 62 -3 6 -9 27 -13 48 -4 20 -12 37 -17 37 -6 0 -8 6 -5 14 3 7
-1 25 -8 39 -7 14 -11 28 -8 31 3 3 0 12 -7 21 -7 8 -10 15 -6 15 3 0 0 16 -9
36 -8 19 -14 38 -13 42 2 12 -14 66 -24 79 -5 7 -7 17 -4 22 4 5 2 12 -4 16
-6 4 -8 11 -5 16 4 5 1 9 -5 9 -6 0 -8 5 -5 10 4 6 2 16 -3 23 -5 7 -8 20 -7
29 2 10 -1 20 -6 24 -5 3 -9 16 -9 30 0 13 -5 24 -11 24 -6 0 -9 6 -6 13 2 6
0 23 -6 37 -11 29 -13 34 -21 74 -3 16 -9 32 -14 35 -5 3 -8 18 -7 34 1 15 -1
27 -5 27 -8 0 -20 45 -26 90 -2 14 -8 26 -14 28 -5 2 -7 8 -4 13 3 6 2 15 -3
22 -5 7 -9 21 -9 32 1 11 -4 26 -11 33 -7 7 -10 19 -7 27 4 8 1 15 -7 15 -7 0
-10 3 -6 6 3 4 0 22 -8 41 -10 24 -11 32 -2 26 7 -4 5 1 -3 12 -8 10 -14 20
-12 22 6 8 1 24 -6 19 -4 -2 -8 3 -9 12 -2 52 -8 80 -15 76 -4 -3 -8 9 -8 25
0 17 -4 31 -8 31 -7 0 -12 19 -15 63 -1 9 -4 17 -7 17 -4 0 -7 6 -8 13 -1 12
-9 47 -12 57 -1 3 -2 8 -1 13 0 4 -3 7 -8 7 -5 0 -7 9 -4 20 3 11 1 20 -4 20
-5 0 -10 12 -11 26 -1 15 -6 32 -12 39 -5 6 -8 14 -5 17 3 2 -4 27 -14 54 -10
27 -17 57 -15 66 1 9 -4 19 -11 22 -7 2 -11 16 -10 30 2 14 -1 26 -7 26 -6 0
-8 7 -5 15 4 8 2 17 -4 20 -5 4 -7 11 -4 16 4 5 1 9 -4 9 -6 0 -10 3 -10 8 4
15 -14 93 -22 98 -4 2 -6 11 -2 19 3 8 0 15 -7 15 -7 0 -10 6 -7 14 3 8 3 17
-1 21 -4 4 -7 10 -8 13 0 4 -6 27 -13 52 -7 25 -13 47 -13 50 0 3 -5 11 -11
19 -10 12 -9 13 3 6 13 -7 13 -6 2 7 -7 9 -11 22 -10 29 2 8 -2 13 -9 12 -7
-2 -10 7 -7 22 2 14 0 25 -6 25 -5 0 -10 5 -10 11 0 5 6 7 13 3 10 -6 10 -4 0
7 -7 7 -13 21 -13 31 0 10 -4 18 -8 18 -4 0 -9 8 -10 18 -6 50 -8 58 -16 64
-5 3 -10 17 -12 31 -2 26 7 32 76 53 14 4 30 9 35 11 6 2 25 6 43 9 17 4 32 9
32 13 0 4 8 7 18 8 29 2 76 14 87 22 5 5 20 7 32 6 12 -1 20 2 17 7 -3 4 6 8
19 8 13 0 27 3 31 7 4 4 13 8 19 9 7 0 20 2 30 2 11 1 15 7 11 14 -4 7 -3 8 4
4 11 -7 87 10 107 24 6 4 20 6 33 5 12 -1 22 2 22 6 0 7 78 25 93 21 5 -2 6 2
3 7 -6 8 34 20 82 23 12 1 22 5 22 9 0 4 7 10 16 13 9 4 13 2 8 -5 -4 -6 3 -6
17 2 13 7 29 14 34 15 6 0 12 2 15 3 3 2 18 5 35 7 16 3 32 10 36 16 3 5 9 9
13 9 25 -4 56 0 53 7 -3 4 5 8 16 9 46 5 62 8 67 13 5 6 83 31 105 35 6 1 12
3 15 4 10 5 46 13 65 14 11 1 23 6 27 11 3 5 17 10 30 11 12 1 31 5 40 9 9 4
22 9 30 10 19 4 50 16 72 27 10 6 16 6 12 1 -3 -5 24 1 61 14 36 13 70 21 74
18 4 -2 10 0 14 6 3 5 17 10 31 10 13 0 24 5 24 10 0 6 10 10 23 10 12 0 51
10 87 21 36 11 72 22 80 24 8 2 15 4 15 5 0 1 7 3 15 5 8 2 26 7 40 10 14 4
31 7 38 7 6 1 12 6 12 11 0 6 3 7 7 4 3 -4 13 -1 21 6 13 10 14 9 8 -1 -6 -10
0 -9 23 2 17 9 31 14 31 11 0 -3 12 1 28 8 15 8 33 12 40 10 6 -3 12 0 12 6 0
5 8 10 18 9 9 0 31 5 49 10 17 6 34 8 37 4 3 -3 6 -1 6 4 0 5 10 10 22 11 11
1 24 6 27 10 3 5 13 8 21 8 8 -1 20 3 27 7 6 5 17 8 25 7 7 -2 22 2 33 8 11 6
28 9 38 8 9 -2 17 0 17 5 0 8 64 25 88 23 6 0 12 3 12 8 0 5 10 9 23 9 13 0
27 3 31 7 3 4 13 8 22 9 15 2 117 32 144 42 8 3 19 4 24 3 4 -1 14 4 22 10 8
6 14 8 14 3 0 -4 5 -3 11 3 6 6 18 9 25 6 8 -3 14 0 14 7 0 6 4 9 8 6 5 -3 21
1 36 9 18 10 24 10 19 2 -4 -7 6 -4 21 7 17 11 25 13 20 5 -6 -11 -5 -12 8 -2
8 7 18 10 21 6 4 -3 7 -2 7 3 0 9 14 13 58 16 6 1 12 5 12 10 0 5 3 7 8 5 4
-3 18 0 32 5 14 6 34 12 45 13 35 5 50 10 55 17 3 4 20 9 37 13 18 3 43 9 56
14 14 6 28 7 31 4 3 -4 6 0 6 7 0 7 3 11 6 7 4 -3 21 0 38 7 17 7 39 12 49 10
9 -1 17 2 17 8 0 6 9 8 20 5 10 -3 20 -1 22 4 2 5 12 10 23 12 47 9 80 21 87
31 5 7 8 6 8 -3 0 -9 4 -10 13 -4 6 6 26 14 42 18 17 5 37 10 45 12 8 3 25 5
37 6 12 0 20 4 18 8 -3 4 10 10 28 14 17 4 37 9 42 11 23 7 61 16 73 16 6 1
12 4 12 8 0 4 10 7 23 6 12 -1 25 2 28 6 3 5 14 10 25 13 10 2 37 9 59 15 22
6 48 13 59 15 10 2 24 9 31 15 9 8 14 8 17 -1 3 -8 10 -6 21 6 10 9 24 15 31
12 7 -3 17 -2 22 3 5 5 20 11 34 14 62 13 74 16 79 24 3 4 16 7 29 6 12 -1 22
3 22 9 0 6 3 8 6 4 3 -3 24 1 46 9 22 7 44 11 49 8 5 -3 9 0 9 5 0 6 11 11 25
11 14 0 25 4 25 9 0 5 13 7 30 6 16 -1 27 1 24 6 -3 5 -2 9 3 10 4 0 19 3 33
5 14 2 33 6 42 7 10 2 21 6 24 10 4 4 18 7 31 7 12 0 23 5 23 12 0 6 3 9 6 6
3 -4 20 -2 37 4 18 5 37 10 42 11 6 2 16 6 23 10 6 5 16 6 21 2 5 -3 12 -1 16
5 4 6 11 8 16 5 5 -4 9 -2 9 4 0 5 11 8 25 6 14 -1 25 2 25 8 0 6 3 7 7 4 3
-4 12 -2 20 4 7 6 13 8 13 4 0 -4 7 -2 15 5 8 7 15 10 15 7 0 -4 18 0 39 8 22
7 42 11 45 8 3 -4 6 -2 6 4 0 5 6 10 13 10 6 0 32 6 57 13 25 8 48 14 53 16 4
1 8 2 10 4 1 1 10 3 20 6 9 2 25 6 35 8 9 3 19 5 22 7 3 1 10 3 15 4 6 2 13 4
18 5 4 1 12 4 17 5 6 1 12 4 15 5 3 1 8 4 13 5 32 10 72 31 72 37 0 4 7 8 15
8 9 0 36 20 60 44 l45 44 0 96 c0 62 -4 95 -10 91 -9 -6 -14 8 -11 28 1 5 -3
6 -8 3 -5 -3 -14 1 -21 9 -7 8 -17 12 -23 8 -6 -3 -7 -1 -3 5 9 15 -42 38 -99
45 -11 1 -23 6 -26 10 -3 5 -31 9 -63 10 -31 1 -56 4 -56 8 0 3 -21 5 -47 5
-26 -1 -58 4 -70 11 -13 7 -21 8 -18 3 4 -6 -1 -10 -9 -10 -8 0 -17 4 -20 8
-2 4 -30 8 -60 7 -32 0 -56 4 -56 10 0 5 -5 3 -10 -5 -8 -12 -10 -12 -10 -1 0
8 -3 12 -6 9 -3 -4 -19 -2 -35 2 -18 5 -29 5 -29 -1 0 -6 -5 -7 -11 -3 -11 6
-61 13 -141 17 -20 1 -40 6 -44 10 -4 4 -13 2 -21 -4 -8 -7 -13 -8 -13 -1 0 5
-10 10 -22 10 -91 -1 -157 6 -151 16 4 6 -1 5 -10 -3 -9 -7 -17 -9 -17 -5 0 5
-35 9 -77 9 -57 0 -82 4 -91 15 -8 8 -11 9 -7 2 4 -8 -1 -11 -17 -8 -13 3 -23
5 -23 6 0 2 -193 12 -262 14 -35 0 -63 3 -63 6 0 4 -23 6 -50 5 -28 0 -50 2
-50 5 0 3 -23 5 -50 4 -28 -1 -53 2 -56 7 -3 5 -11 6 -17 2 -17 -10 -47 -11
-53 -1 -3 5 -13 3 -22 -4 -10 -8 -13 -9 -9 -1 5 8 -10 11 -55 12 -35 0 -67 0
-73 1 -5 1 -28 2 -50 1 -31 0 -37 2 -25 10 12 9 11 9 -5 4 -11 -4 -29 -7 -40
-5 -11 1 -66 3 -122 3 -58 1 -99 6 -95 11 3 5 -3 6 -13 2 -11 -4 -22 -2 -27 6
-5 8 -8 9 -8 2 0 -11 -46 -11 -57 0 -3 2 -15 1 -28 -4 -13 -5 -26 -6 -29 -3
-12 12 -86 11 -79 -1 4 -6 -1 -5 -10 3 -9 7 -26 11 -37 8 -11 -3 -20 0 -20 6
0 7 -5 5 -10 -3 -5 -8 -10 -10 -10 -5 0 6 -42 10 -105 10 -58 0 -105 4 -105 8
0 4 -8 3 -19 -2 -10 -6 -22 -7 -26 -3 -3 4 -23 8 -43 8 -21 1 -88 3 -149 4
-72 2 -113 7 -113 14 0 7 -3 8 -8 1 -10 -15 -46 -19 -37 -5 6 9 2 9 -14 1 -11
-7 -21 -8 -21 -4 0 4 -48 8 -108 8 -59 0 -126 3 -149 6 -25 3 -43 2 -43 -4 0
-5 -11 -2 -24 7 -18 11 -27 13 -32 4 -5 -7 -3 -8 6 -3 9 5 11 4 6 -4 -6 -9
-11 -9 -23 0 -12 10 -16 10 -24 -2 -6 -10 -9 -11 -9 -1 0 7 -4 10 -10 7 -5 -3
-10 -1 -10 5 0 8 -7 9 -17 5 -10 -4 -22 -7 -28 -6 -5 0 -59 2 -120 3 -60 2
-115 6 -121 10 -6 4 -14 5 -17 1 -9 -8 -68 -12 -63 -4 3 5 -95 9 -259 11 -5 0
-21 -1 -35 -3 -14 -2 -30 1 -37 5 -6 5 -14 4 -18 -2 -5 -8 -11 -8 -21 1 -11 9
-14 9 -14 0 0 -7 -5 -9 -12 -4 -20 12 -78 11 -78 -1 0 -8 -3 -8 -8 -1 -8 12
-25 13 -292 18 -102 1 -191 7 -199 11 -9 6 -12 5 -7 -2 4 -7 -3 -9 -21 -7 -16
2 -28 4 -28 5 0 1 -8 3 -18 5 -9 2 -15 -1 -11 -6 7 -11 1 -11 -30 1 -17 6 -26
6 -26 -1 0 -6 -6 -6 -18 0 -10 5 -24 6 -32 1 -7 -4 -24 -4 -37 1 -33 12 -46
11 -37 -3 6 -10 4 -10 -7 -2 -9 7 -82 12 -203 13 -104 0 -191 3 -194 5 -2 3
-15 1 -28 -4 -13 -5 -24 -6 -24 -2 0 4 -30 6 -67 6 -38 -1 -74 4 -82 10 -11 8
-13 8 -7 -1 8 -15 -41 -15 -61 -1 -6 5 -14 5 -18 -2 -9 -14 -28 -13 -19 3 6
10 4 10 -7 0 -16 -16 -33 -17 -23 -1 5 7 3 8 -7 2 -20 -12 -39 -14 -39 -3 0 5
-11 4 -25 -1 -16 -6 -26 -6 -31 1 -4 7 -10 6 -19 -1 -10 -8 -14 -7 -18 2 -4
10 -7 10 -15 -1 -7 -10 -11 -10 -17 -1 -6 9 -10 9 -16 -1 -5 -8 -9 -9 -9 -4 0
6 -123 10 -349 10 -192 0 -347 4 -344 8 3 5 -4 4 -15 -2 -14 -7 -23 -8 -27 -1
-4 6 -11 8 -16 4 -11 -7 -132 -7 -167 0 -12 3 -20 2 -18 -2 2 -4 -4 -8 -14 -8
-10 0 -16 4 -14 8 3 4 0 8 -5 8 -6 0 -11 -5 -11 -11 0 -8 -6 -7 -17 2 -13 11
-17 11 -20 1 -3 -6 -9 -9 -14 -6 -12 7 -149 11 -144 4 2 -3 -7 -5 -20 -5 -13
0 -21 3 -18 7 5 10 -54 4 -64 -5 -3 -4 -11 -7 -17 -7 -6 0 -4 5 4 10 12 8 11
10 -6 10 -11 0 -26 -6 -33 -12 -9 -8 -11 -9 -7 -1 8 14 -2091 16 -2100 2 -3
-5 -10 -6 -16 -3 -14 9 -127 11 -122 3 4 -8 -41 -3 -55 6 -6 3 -11 1 -11 -4 0
-6 -5 -11 -11 -11 -5 0 -8 4 -5 8 3 5 -1 9 -9 9 -8 0 -15 -3 -15 -7 0 -3 -9
-6 -20 -6 -11 0 -20 5 -20 11 0 5 -4 4 -9 -4 -5 -8 -11 -9 -15 -3 -3 6 -20 7
-38 3 -42 -8 -110 -7 -124 2 -6 3 -14 3 -18 0z m4169 -2584 c-4 -5 -1 -9 4 -9
6 0 11 -11 11 -25 0 -14 3 -25 8 -25 4 0 8 -11 8 -25 1 -14 5 -33 9 -43 8 -16
12 -32 18 -59 2 -7 6 -16 10 -19 4 -4 7 -20 7 -36 0 -15 5 -28 10 -28 6 0 9
-3 8 -7 -3 -11 13 -86 20 -98 4 -5 7 -14 9 -20 1 -5 4 -19 7 -30 3 -11 11 -41
18 -67 6 -27 15 -48 19 -48 4 0 6 -9 4 -20 -2 -11 0 -20 6 -20 5 0 9 -5 9 -11
0 -5 -4 -8 -9 -5 -5 3 0 -11 11 -32 10 -20 17 -44 15 -52 -2 -9 2 -21 9 -28 7
-6 11 -21 9 -32 -2 -11 1 -20 7 -20 6 0 8 -11 6 -25 -3 -13 -1 -22 3 -19 9 5
12 -5 12 -38 0 -10 3 -18 7 -18 8 0 25 -67 21 -87 -1 -7 3 -13 9 -13 5 0 10
-13 10 -30 0 -16 5 -30 11 -30 5 0 7 -4 4 -10 -3 -5 -3 -16 2 -22 8 -13 13
-33 15 -55 1 -7 5 -13 10 -13 5 0 6 -4 3 -10 -3 -5 -3 -16 2 -22 8 -13 12 -29
15 -60 1 -10 5 -18 8 -18 4 0 7 -6 8 -12 1 -21 7 -42 13 -53 4 -5 5 -18 4 -27
-2 -10 1 -18 6 -18 6 0 8 -4 4 -9 -3 -5 2 -17 11 -25 11 -12 12 -16 2 -16 -8
0 -9 -3 -3 -8 10 -7 12 -14 21 -56 2 -10 9 -25 16 -34 11 -13 11 -15 -2 -7
-12 6 -13 5 -2 -6 6 -7 12 -23 12 -35 0 -13 4 -25 9 -28 5 -4 8 -14 6 -24 -1
-9 2 -23 8 -29 5 -7 6 -13 2 -13 -4 0 -1 -7 6 -16 8 -9 14 -22 14 -28 2 -29
18 -87 26 -92 5 -3 7 -9 4 -14 -3 -5 0 -20 7 -32 7 -13 11 -27 10 -32 -2 -5 0
-16 4 -25 4 -9 8 -20 10 -26 1 -5 7 -24 12 -42 6 -17 8 -34 4 -37 -3 -3 0 -6
7 -6 8 0 11 -8 8 -20 -3 -11 1 -26 8 -34 8 -7 12 -16 9 -19 -4 -3 -2 -12 2
-19 5 -7 9 -17 11 -23 1 -5 4 -21 7 -34 6 -26 24 -87 33 -111 3 -8 8 -24 10
-34 2 -11 8 -25 14 -32 7 -8 6 -14 -2 -19 -8 -6 -8 -9 1 -15 6 -4 13 -13 14
-21 1 -8 8 -32 14 -54 6 -22 11 -42 11 -45 -1 -3 6 -22 14 -42 8 -20 13 -39
10 -42 -3 -3 0 -12 6 -20 7 -8 14 -27 17 -43 2 -15 7 -35 11 -43 3 -8 8 -24
10 -35 2 -11 6 -27 10 -35 3 -8 5 -21 4 -27 -1 -7 2 -13 7 -13 5 0 10 -12 10
-26 0 -15 4 -29 9 -33 5 -3 8 -16 7 -28 -1 -13 3 -23 7 -23 5 0 9 -13 9 -29 0
-17 4 -32 9 -35 8 -6 26 -80 19 -82 -1 0 3 -8 10 -17 8 -9 11 -21 8 -26 -4 -5
-2 -12 4 -16 6 -4 8 -11 5 -16 -4 -5 -2 -9 4 -9 5 0 8 -9 6 -20 -2 -11 0 -20
6 -20 5 0 9 -11 9 -24 0 -14 5 -28 10 -31 6 -4 8 -10 5 -15 -3 -4 2 -24 10
-43 11 -27 12 -37 2 -40 -7 -4 -6 -6 4 -6 12 -1 16 -9 14 -31 -1 -16 1 -27 6
-24 9 5 13 -16 10 -43 -1 -7 3 -13 10 -13 6 0 9 -6 6 -14 -3 -7 1 -23 8 -34 8
-10 12 -22 8 -25 -3 -4 -2 -12 4 -19 5 -7 9 -22 9 -33 -1 -11 3 -23 7 -26 9
-6 10 -10 22 -76 4 -24 10 -43 14 -43 4 0 8 -12 9 -27 1 -16 7 -30 12 -31 6
-2 8 -8 5 -12 -3 -5 1 -25 9 -45 8 -19 13 -35 10 -35 -2 0 2 -16 11 -36 8 -19
14 -38 14 -42 -1 -4 0 -10 1 -14 1 -5 4 -12 5 -18 1 -5 4 -12 5 -15 1 -3 3 -8
4 -12 2 -5 8 -28 16 -53 7 -25 13 -51 13 -57 0 -7 4 -13 9 -13 4 0 8 -16 8
-35 0 -19 4 -35 9 -35 8 0 26 -75 22 -92 0 -5 3 -8 7 -8 5 0 9 -7 10 -15 1 -8
3 -22 4 -30 1 -8 5 -15 10 -15 4 0 3 -9 -4 -20 -8 -13 -15 -16 -19 -8 -6 9
-12 8 -23 -1 -13 -11 -16 -11 -16 0 0 10 -3 10 -12 1 -8 -8 -15 -8 -24 -1 -7
6 -19 7 -26 3 -17 -11 -40 -11 -55 0 -9 5 -13 4 -13 -4 0 -10 -3 -10 -14 -1
-10 8 -16 9 -21 1 -4 -6 -12 -7 -23 -1 -10 6 -23 6 -34 0 -12 -7 -18 -6 -18 1
0 6 -5 8 -12 3 -17 -10 -40 -10 -55 1 -9 5 -13 4 -13 -4 0 -10 -3 -10 -15 0
-12 10 -15 10 -15 -1 0 -12 -2 -12 -9 0 -5 7 -11 9 -14 4 -7 -11 -37 -11 -55
1 -7 4 -12 2 -12 -5 0 -8 -4 -8 -15 1 -12 10 -15 10 -15 0 0 -10 -3 -10 -15 0
-12 10 -15 10 -15 -1 0 -12 -2 -12 -9 0 -5 7 -11 9 -14 4 -7 -11 -37 -11 -55
1 -7 4 -12 2 -12 -5 0 -8 -4 -8 -15 1 -12 10 -15 10 -16 -1 0 -11 -2 -11 -6
-1 -4 10 -8 10 -19 1 -11 -9 -14 -8 -14 2 0 10 -3 10 -12 1 -8 -8 -15 -9 -25
-1 -10 9 -13 8 -13 -1 0 -10 -3 -10 -15 0 -12 10 -15 10 -16 -1 0 -10 -2 -11
-6 -2 -3 8 -11 10 -21 5 -16 -7 -36 -8 -54 -2 -20 6 -34 5 -45 -3 -9 -6 -13
-5 -13 4 0 10 -3 10 -12 1 -8 -8 -15 -9 -25 -1 -10 9 -13 8 -13 -2 0 -10 -3
-10 -12 -1 -8 8 -15 9 -25 1 -9 -9 -13 -8 -13 0 0 7 -5 9 -12 5 -18 -12 -48
-12 -55 -1 -3 5 -9 3 -14 -4 -7 -12 -9 -12 -9 0 0 11 -3 11 -15 1 -8 -7 -15
-8 -15 -3 0 5 -7 10 -15 10 -8 0 -15 -5 -15 -10 0 -5 -6 -4 -14 2 -11 9 -15 9
-19 -1 -4 -10 -7 -10 -15 1 -7 10 -11 10 -17 1 -5 -8 -12 -7 -26 6 -10 9 -19
14 -19 9 0 -4 -12 10 -26 31 -15 21 -37 49 -50 61 -13 12 -24 27 -24 33 0 5
-6 10 -14 10 -8 0 -18 9 -21 20 -3 11 -11 20 -16 20 -5 0 -9 7 -9 16 0 8 -4
12 -10 9 -5 -3 -10 -2 -10 4 0 5 -16 25 -35 45 -19 20 -32 36 -29 36 2 0 -13
18 -36 40 -22 21 -40 42 -40 45 0 2 -22 27 -49 55 -27 27 -47 50 -45 50 3 0
-11 16 -30 35 -20 19 -33 35 -29 35 3 0 -4 8 -15 19 -12 10 -19 20 -17 23 3 2
-6 11 -20 18 -14 7 -25 17 -25 21 0 4 -12 21 -27 38 -16 17 -46 51 -68 76 -22
25 -53 61 -70 79 -16 19 -50 57 -75 86 -25 28 -60 67 -77 87 -18 19 -33 37
-33 39 0 10 -64 63 -71 59 -4 -3 -40 28 -81 68 -41 39 -83 78 -94 85 -10 7
-32 21 -49 32 -16 10 -36 24 -42 30 -7 6 -13 8 -13 4 0 -4 -9 1 -20 11 -11 10
-20 15 -20 10 0 -4 -12 0 -26 10 -14 9 -32 14 -40 11 -7 -3 -17 0 -21 7 -5 7
-19 13 -33 13 -14 1 -59 6 -100 11 -42 5 -87 6 -100 3 -14 -4 -37 -3 -53 1
-16 5 -25 4 -22 -2 4 -5 -4 -10 -17 -10 -42 -3 -53 -5 -71 -13 -10 -5 -20 -6
-24 -3 -3 4 -17 1 -32 -6 -14 -7 -39 -13 -56 -13 -16 1 -33 -2 -36 -7 -3 -4
-22 -8 -43 -9 -20 -1 -39 -5 -42 -9 -2 -5 -11 -6 -19 -2 -8 3 -15 1 -15 -3 0
-5 -10 -9 -22 -10 -45 -2 -94 -10 -107 -18 -7 -4 -15 -6 -18 -3 -3 3 -17 1
-32 -5 -42 -16 -61 -18 -62 -5 0 7 -2 20 -4 30 -2 9 2 17 8 17 8 0 7 3 -2 9
-10 6 -10 10 -1 16 9 6 9 10 -1 16 -9 5 -10 9 -2 9 6 0 9 9 6 20 -3 11 -1 20
3 20 5 0 9 21 8 48 0 26 3 55 9 66 6 13 6 16 -2 12 -6 -4 -11 -2 -11 3 0 6 4
11 8 11 5 0 8 27 8 61 -1 33 2 63 6 65 4 3 5 13 3 24 -2 11 -1 20 3 20 4 0 7
27 7 61 -1 33 2 62 7 65 4 3 8 10 8 15 0 6 -6 7 -12 3 -9 -6 -9 -3 1 9 8 10
12 33 9 57 -2 22 0 40 4 40 4 0 5 9 3 20 -2 11 -1 20 3 20 4 0 7 21 6 47 0 27
3 53 8 60 5 6 5 14 -2 18 -6 3 -7 12 -3 18 4 7 8 17 9 22 3 18 16 179 18 215
1 19 5 41 9 48 5 7 3 12 -5 12 -9 0 -9 3 -2 8 9 6 15 48 17 130 1 12 6 22 12
22 5 0 3 5 -5 10 -8 5 -10 10 -5 10 6 0 10 24 10 53 0 28 2 56 4 62 6 12 13
55 11 75 0 8 0 24 1 35 1 11 2 35 3 53 0 17 4 32 8 32 4 0 5 16 4 35 -2 19 0
35 5 35 6 0 5 9 -1 20 -6 11 -7 20 -2 20 5 0 9 15 10 33 5 104 8 133 17 139 6
5 5 8 -3 8 -8 0 -10 5 -5 13 10 16 12 30 14 99 1 32 5 56 8 54 3 -2 6 25 6 61
0 35 3 67 7 69 5 3 8 10 8 15 0 6 -5 7 -12 3 -7 -5 -8 -3 -2 7 12 20 15 37 14
102 0 34 4 47 14 47 6 0 4 5 -4 10 -8 5 -10 10 -4 10 6 0 10 14 9 33 -1 17 3
38 9 46 8 11 8 13 -1 7 -9 -5 -11 -2 -7 8 5 14 67 33 87 28 4 -1 7 3 7 8 0 6
11 8 25 6 14 -3 23 -1 20 5 -6 8 15 13 43 10 6 -1 12 3 12 9 0 7 6 10 13 7 6
-2 28 2 49 9 20 7 39 10 42 7 3 -4 6 -1 6 6 0 8 8 11 20 8 10 -3 27 1 37 8 9
7 23 11 30 8 7 -3 13 -1 13 4 0 5 6 10 13 11 40 3 57 7 57 13 0 4 8 6 18 5 9
-2 19 0 22 4 3 5 19 9 35 11 17 2 35 7 42 12 7 5 16 6 22 3 5 -3 11 -1 13 4 2
6 20 12 40 13 20 1 34 5 31 10 -4 6 28 12 50 8 4 0 7 4 7 10 0 6 7 9 15 6 8
-4 17 -2 21 4 3 6 12 8 20 5 8 -3 14 -2 14 2 0 4 9 9 20 10 11 1 29 3 40 4 11
1 20 6 20 11 0 4 4 6 9 2 5 -3 12 -1 16 4 3 6 13 7 22 4 9 -4 14 -2 11 3 -6 9
3 11 62 17 14 1 28 7 32 12 4 6 15 10 25 11 33 2 83 16 83 24 0 3 10 6 23 5
12 -1 27 1 32 5 9 7 44 17 89 26 11 2 22 7 25 12 3 4 18 8 34 9 47 3 57 6 57
15 0 5 5 6 10 3 6 -3 10 -2 10 4 0 5 8 8 18 6 9 -1 22 2 28 7 7 5 16 8 20 6 8
-2 60 13 104 29 8 3 22 7 30 8 16 2 96 24 120 33 8 3 18 6 22 6 3 1 9 4 13 8
4 4 13 4 20 2 7 -3 16 -1 19 5 4 6 13 8 21 4 8 -3 15 -1 15 4 0 5 6 10 13 11
10 1 42 7 55 11 1 1 5 2 10 3 4 1 25 7 47 14 39 12 40 11 53 -18 7 -16 10 -33
7 -39z"/>
<path d="M9847 9644 c-1 -1 -27 -4 -57 -7 -60 -6 -94 -12 -155 -29 -22 -7 -42
-12 -45 -13 -3 -1 -22 -9 -44 -18 -21 -9 -42 -17 -47 -17 -5 0 -9 -5 -9 -12 0
-6 -3 -9 -6 -6 -5 6 -60 -26 -90 -51 -7 -6 -15 -7 -18 -4 -3 4 -6 1 -6 -5 0
-7 -7 -12 -16 -12 -9 0 -12 -5 -8 -12 5 -8 2 -9 -12 -4 -10 4 -16 4 -12 1 3
-3 -25 -37 -63 -75 -38 -37 -69 -75 -69 -84 0 -8 -9 -20 -20 -26 -11 -6 -20
-17 -20 -25 0 -7 -7 -21 -16 -29 -8 -9 -12 -16 -8 -16 3 0 1 -7 -6 -15 -7 -8
-9 -15 -5 -15 5 0 1 -8 -8 -17 -8 -10 -16 -21 -17 -25 -4 -37 -14 -67 -20 -63
-3 2 -7 -1 -7 -8 -1 -7 -4 -37 -8 -67 -5 -30 -8 -61 -8 -67 0 -7 -5 -13 -11
-13 -6 0 -4 -5 4 -10 8 -5 10 -10 4 -10 -14 0 -13 -42 1 -52 6 -5 6 -8 -1 -8
-6 0 -11 -7 -11 -15 0 -8 5 -15 11 -15 6 0 4 -5 -4 -10 -8 -5 -10 -10 -5 -10
6 0 12 -19 14 -42 1 -24 3 -51 4 -60 1 -10 5 -18 9 -18 4 0 8 -10 8 -23 0 -13
4 -27 8 -32 5 -6 15 -29 22 -52 7 -24 17 -43 22 -43 4 0 8 -3 7 -7 -2 -17 14
-53 24 -53 6 0 8 -3 4 -6 -3 -3 3 -15 13 -27 11 -11 17 -23 15 -27 -2 -4 7
-17 20 -28 14 -12 25 -29 25 -38 0 -8 5 -12 10 -9 6 3 10 2 10 -3 0 -8 50 -61
125 -133 12 -10 26 -19 33 -19 7 0 12 -4 12 -10 0 -5 7 -10 15 -10 8 0 15 -5
15 -11 0 -5 5 -7 10 -4 6 3 10 2 10 -4 0 -9 31 -24 55 -26 6 0 9 -6 8 -13 -2
-7 0 -11 5 -11 4 1 9 0 12 -1 3 -1 12 -3 20 -5 8 -1 42 -12 75 -23 33 -11 76
-23 95 -25 19 -3 35 -6 35 -8 0 -1 46 -3 102 -4 56 -1 100 1 98 5 -2 4 8 7 23
7 15 1 41 4 57 7 17 4 38 8 48 9 9 1 17 5 17 10 0 5 9 7 20 4 11 -3 18 -1 14
4 -3 5 0 10 5 10 21 3 26 4 39 12 6 5 12 5 12 0 0 -4 4 -3 8 3 4 6 28 20 54
33 25 12 52 29 58 37 7 7 18 14 26 14 7 0 18 8 23 18 6 9 11 13 11 8 0 -5 10
2 23 15 12 13 37 36 55 52 19 15 30 27 26 27 -4 0 1 8 12 19 10 10 26 28 34
41 8 12 20 28 26 34 6 6 11 16 12 21 1 6 7 17 14 26 7 8 14 22 16 30 2 8 15
36 28 63 14 27 23 55 20 63 -3 7 -1 13 4 13 6 0 10 11 10 23 0 13 3 27 7 31 8
7 10 17 19 89 9 72 10 198 1 204 -4 2 -5 9 -2 14 4 5 3 15 -1 21 -5 7 -9 19
-10 28 -7 47 -13 69 -28 102 -9 21 -16 42 -16 48 0 5 -4 10 -9 10 -6 0 -8 9
-6 20 2 11 0 18 -6 15 -5 -4 -9 1 -9 9 0 9 -4 16 -8 16 -4 0 -13 12 -20 28
-21 47 -39 72 -45 65 -4 -3 -7 1 -7 10 0 9 -4 17 -10 17 -5 0 -10 6 -10 14 0
8 -4 16 -9 18 -5 2 -30 22 -55 46 -25 24 -46 41 -46 38 0 -3 -11 5 -24 17 -40
36 -56 48 -56 41 0 -4 -8 1 -19 10 -10 9 -28 18 -40 19 -11 1 -21 5 -21 9 0 4
-7 8 -15 8 -8 0 -15 5 -15 11 0 6 -6 9 -14 6 -7 -3 -23 1 -35 9 -11 8 -21 12
-21 8 0 -3 -7 -1 -15 6 -8 6 -19 9 -25 5 -5 -3 -10 -2 -10 3 0 5 -6 9 -12 10
-7 1 -24 3 -38 5 -14 1 -29 5 -35 9 -5 3 -31 6 -57 6 -27 0 -49 1 -50 2 -5 3
-48 7 -51 4z"/>
</g>
</svg>
